<svg xmlns:rdf="http://www.w3.org/1999/02/22-rdf-syntax-ns#" xmlns="http://www.w3.org/2000/svg" height="746.33" width="2100.8" version="1.0" xmlns:cc="http://creativecommons.org/ns#" xmlns:dc="http://purl.org/dc/elements/1.1/">
 <g transform="translate(6396.5 -21977)">
  <g transform="matrix(.53166 0 0 .53166 -19125 10956)">
   <g transform="translate(-8.8389 -54.638)" fill="black">
    <g fill="black" transform="matrix(5.3579 0 0 5.3579 17302 24232)">
     <path d="m1247.8-643.41-7.0002 75.003v125l175 12.5c0.2682 27.37 22.566 49.502 49.999 49.502s49.735-22.131 50.003-49.502h250c0.2681 27.37 22.57 49.502 50.003 49.502s49.731-22.131 49.999-49.502h95l17.498-12.5v-74.999l-44.997-125h-685.5zm35.999 25.003h3.3474 72.402l6.2499 4.9985v77.498l-6.2499 5.0021h-77.498l-10-5.0021 6.7474-77.498 5.0022-4.9985zm104.5 0h105l10 4.9985v77.498l-10 5.0021h-105l-10.001-5.0021v-77.498l10.001-4.9985zm137.5 0h92.501l10.001 4.9985v77.498l-10.001 5.0021h-92.501l-9.9967-5.0021v-77.498l9.9967-4.9985zm212.5 0h117.5l10.001 4.9985v77.498l-10.001 5.0021h-117.5l-10.001-5.0021v-77.498l10.001-4.9985zm150 0h41.499l35.999 99.999-25 25h-52.499l-10.001-12.5v-107.5l10.001-4.9985zm-235 0.49758h25v87.001h-25v-87.001zm37.5 0h25v87.001h-25v-87.001z" fill-rule="evenodd" fill="black"/>
    </g>
   </g>
  </g>
 </g>
</svg>
