<svg xmlns:rdf="http://www.w3.org/1999/02/22-rdf-syntax-ns#" xmlns="http://www.w3.org/2000/svg" height="978.7" width="1544.3" version="1.0" xmlns:cc="http://creativecommons.org/ns#" xmlns:dc="http://purl.org/dc/elements/1.1/">
 <g transform="translate(7341.8 180.74)">
  <g transform="translate(26200,18300)">
   <g transform="matrix(1.428 0 0 1.428 -23282 -21706)"></g>
   <g transform="matrix(.56026 0 0 .56026 -13625 -8087.5)">
    <path d="m-34265-18346c-124.45-79.376-259.17-7.512-308.19 121.87-126.44-78.042-246.06 0.785-269.17 141.16-121.27-19.631-173.97 127.81-76.5 193.77h-94.693v206.7h-138.53v480.7h-145.33v-39.895h-58.745v188.73h58.745v-42.086h141.6c-80.291 47.425-68.278 147.02 9.207 188.73h-403.32v102.8h2756.4v-102.8h-772.45c76.718-27.488 131.74-100.82 131.74-186.98v-1.754h242 141.16v42.086h58.526v-188.73h-58.526v39.895h-141.16v-386.88h-198.81v-191.14h94.913v-109.38h-493.63v206.7h-179.3v-97.324h-109.82v97.324h-288.9c5.478-66.273-45.065-102.38-103.46-111.79-60.575 4.575-106.63 49.108-103.24 111.79h-287.81v-194.87c41.228-2.904 75.946-29.513 90.309-66.416 99.389 69.454 213.45 20.262 263.91-82.419 98.227 80.173 222.28 52.638 298.77-41.647 257.54 85.253 578.83-0.446 761.27-200.35-78.143-135.33-85.024-147.15-157.38-272.46-238.23-35.61-484.24 25.809-659.56 194.65zm-492.97 1251h42.743v1.754c0 86.154 55.018 159.49 131.74 186.98h-487.28c38.542-15.146 65.979-52.573 65.979-96.447 0-0.896-0.198-1.74-0.22-2.63h247.04v-89.652zm439.93 0h46.032v1.754c0 86.144 54.974 159.48 131.74 186.98h-309.51c76.718-27.488 131.74-100.82 131.74-186.98v-1.754zm443.44 0h43.182v1.754c0 86.154 55.019 159.49 131.74 186.98h-306.66c76.72-27.488 131.74-100.82 131.74-186.98v-1.754z" fill-rule="evenodd" fill="#black"/>
   </g>
  </g>
 </g>
</svg>
