<svg xmlns:rdf="http://www.w3.org/1999/02/22-rdf-syntax-ns#" xmlns="http://www.w3.org/2000/svg" height="937.21" width="2916.1" version="1.0" xmlns:cc="http://creativecommons.org/ns#" xmlns:dc="http://purl.org/dc/elements/1.1/">
 <g transform="translate(-5942.1 11092)">
  <g transform="translate(-16700,5500)">
   <g transform="matrix(6.5319 0 0 6.5319 -1.3026e5 -79477)">
    <g transform="matrix(.13476 0 0 .13476 21213 8573.4)">
     <path d="m16833 7820.9 182.73 432.77h-58.269l-386.63 227.26h-282.02v117.44l64.884 287.25h3028.2l219.79-404.69h-444.9l-142.25-173.54h-411.22l-43.685-53.718h-264.83l-46.34-116.16h-279.39v58.719h-72.809l-219.82-288.51h-213.18l115.21 288.51h-59.595v57.439h-447.53l-238.34-432.77zm28.326 695.25h244.04l78.139 130.45h182.36v79.019c0 18.289-11.644 33.003-21.282 33.003-8.986 0-19.146 0.018-29.735 0.04 0.224 2.026 0.347 4.08 0.347 6.163 0 31.797-26.758 57.615-59.738 57.615-32.981 0-59.739-25.818-59.739-57.615 0-1.92 0.1-3.819 0.288-5.691-108.36 0.574-230.66 1.472-328.18 2.205 0.07 1.156 0.102 2.314 0.102 3.486 0 31.797-26.759 57.615-59.739 57.615-32.979 0-59.737-25.818-59.737-57.615 0-0.868 0-1.722 0.04-2.58-17.238 0.126-29.578 0.197-32.391 0.197-14.635 0-22.444-13.647-22.445-20.36 0-15.672 0.001-36.921 0-36.921l167.67-189.02zm894.41 0h244.04l78.139 130.45h182.36v79.019c0 18.289-11.644 33.003-21.281 33.003-8.986 0-19.147 0.018-29.736 0.04 0.224 2.026 0.347 4.08 0.347 6.163 0 31.797-26.758 57.615-59.738 57.615-32.979 0-59.737-25.818-59.737-57.615 0-1.92 0.09-3.819 0.284-5.691-108.36 0.574-230.66 1.472-328.18 2.205 0.07 1.156 0.101 2.314 0.101 3.486 0 31.797-26.758 57.615-59.737 57.615-32.981 0-59.739-25.818-59.739-57.615 0-0.868 0-1.722 0.04-2.58-17.241 0.126-29.578 0.197-32.39 0.197-14.637 0-22.447-13.647-22.447-20.36v-36.921l167.68-189.02zm894.43 0h244.04l78.138 130.45h182.36v79.019c0 18.289-11.644 33.003-21.281 33.003-8.985 0-19.147 0.018-29.736 0.04 0.224 2.026 0.347 4.08 0.347 6.163 0 31.797-26.759 57.615-59.739 57.615-32.978 0-59.736-25.818-59.736-57.615 0-1.92 0.09-3.819 0.285-5.691-108.36 0.574-230.66 1.472-328.18 2.205 0.07 1.156 0.102 2.314 0.102 3.486 0 31.797-26.757 57.615-59.737 57.615-32.981 0-59.738-25.818-59.738-57.615 0-0.868 0-1.722 0.04-2.58-17.24 0.126-29.579 0.197-32.391 0.197-14.634 0-22.445-13.647-22.445-20.36v-36.921l167.67-189.02zm-1794.1 53.225v78.134h151.17v-78.134h-151.17zm168.98 0v78.134h130.73l-47.729-78.134h-83zm725.43 0v78.134h151.17v-78.134h-151.17zm169 0v78.134h130.71l-47.728-78.134h-82.981zm725.41 0v78.134h151.19v-78.134h-151.19zm169 0v78.134h130.73l-47.729-78.134h-82.999z" fill-rule="evenodd" fill="black"/>
    </g>
   </g>
  </g>
 </g>
</svg>
