<svg xmlns:rdf="http://www.w3.org/1999/02/22-rdf-syntax-ns#" xmlns="http://www.w3.org/2000/svg" height="1284.9" width="2082.5" version="1.0" xmlns:cc="http://creativecommons.org/ns#" xmlns:dc="http://purl.org/dc/elements/1.1/">
 <g transform="translate(-4068.4 -2952.8)">
  <g transform="translate(91.429 3741.9)">
   <path d="m5257-789.08 0.655 74.194h100.02c4.8796 0 27.912 12.925 32.092 25.73 23.498 71.99 26.893 85.968 45.752 146.33l-665.97-0.0935-17.777-56.605c36.983-16.008 154.1-66.71 154.1-66.71 8.9765-10.858 18.084-39.55-12.257-45.565l-366.76-2.6197 45.378 125.65h103.29l25.542 81.024-156.34 255.05c-52.374-25.729-111.21-40.138-173.46-40.138-217.68 0.00006-394.36 176.59-394.36 394.27s176.68 394.36 394.36 394.36c203.95 0.00006 371.93-155.07 392.3-353.66h69.142c14.408 43.774 55.557 75.411 104.13 75.411 60.551 0.00006 109.75-49.104 109.75-109.65-0.0003-16.882-3.8437-32.864-10.666-47.155l461.26-406.15c10.731 34.348 18.158 58.101 24.794 79.34-147.01 57.319-251.31 200.29-251.31 367.51 0 217.68 176.68 394.36 394.36 394.36 217.68 0.00006 394.36-176.68 394.36-394.36s-176.68-394.27-394.36-394.27c-23.809 0.00006-47.054 2.0321-69.704 6.0815-35.075-113.52-80.924-262.01-137.44-444.79-12.053-38.978-55.212-57.54-87.012-57.54h-113.86zm-463.5 322.04 665.69 0.0935c6.4885 20.769 6.6301 21.1 13.192 42.103l-491 432.44c-12.713-5.6481-26.745-8.9527-41.448-9.3562l-146.5-465.28zm-62.218 55.295 136.69 434.31c-12.983 10.507-23.487 23.975-30.594 39.296h-73.727c-11.2-111.94-69.3-210.19-154.3-274.71l121.91-198.91zm931.41 196.57c171.95-0.00003 311.56 139.51 311.56 311.47 0 171.95-139.61 311.56-311.56 311.56s-311.47-139.61-311.47-311.56c0-127.46 76.661-237.05 186.37-285.27l71.481 256.45c-7.0188 9.9847-11.134 22.15-11.134 35.273 0 33.911 27.559 61.47 61.47 61.47 33.911 0.00006 61.376-27.559 61.376-61.47-0.0003-27.122-17.611-50.059-42.009-58.195l-71.013-254.86c17.835-3.1776 36.177-4.8652 54.921-4.8652zm-1290.9 3.7425c46.407 0.00003 90.47 10.126 130.05 28.349l-135.57 222.4c-32.13 1.9784-57.54 28.658-57.54 61.283 0 33.911 27.466 61.47 61.376 61.47 20.908 0 39.426-10.507 50.523-26.478h260.66c-17.67 155.22-149.58 276.01-309.5 276.01-171.95-0.00006-311.47-139.61-311.47-311.56s139.51-311.47 311.47-311.47zm192.64 66.709c63.042 49.702 106.43 123.23 116.58 206.96h-242.79l126.21-206.96z" fill="black"/>
  </g>
 </g>
</svg>
