<svg xmlns:rdf="http://www.w3.org/1999/02/22-rdf-syntax-ns#" xmlns="http://www.w3.org/2000/svg" height="1279" width="1381.1" version="1.0" xmlns:cc="http://creativecommons.org/ns#" xmlns:dc="http://purl.org/dc/elements/1.1/">
 <g transform="translate(5932.9 -481.07)">
  <g fill="black" transform="translate(-31079 8577.8)">
   <g transform="translate(1312 -11417)">
    <path d="m23907 4037.9c0-16.43-51.831-203.51-51.831-203.51h82.319l112.81 176.83s36.493-17.318 123.39-28.751c86.89-11.433 224.18-16.981 224.18-16.981l-134.15-567.08h88.415l329.4 570.53s340.04-3.5201 359.64 0c25.948 4.6619 195.12 69.722 195.12 68.96 0-0.7622-169.18 64.298-195.12 68.96-19.594 3.5202-359.64 0-359.64 0l-329.4 570.53h-88.415l134.15-567.08s-137.29-5.5482-224.18-16.981c-86.893-11.433-123.39-28.751-123.39-28.751l-112.81 176.83h-82.319l51.831-203.51z" fill-rule="evenodd" transform="translate(-21.352 -77.847)" fill="#2d2d2d"/>
   </g>
  </g>
 </g>
</svg>
