<svg xmlns:rdf="http://www.w3.org/1999/02/22-rdf-syntax-ns#" xmlns="http://www.w3.org/2000/svg" xml:space="preserve" height="626.43" width="625.82" version="1.0" xmlns:cc="http://creativecommons.org/ns#" xmlns:dc="http://purl.org/dc/elements/1.1/" viewBox="0 0 625.82206 626.43"><g transform="translate(1934.5 -481.45)"><path d="m-1934.5 1026.8c-0.614-48.072 6.86-96.705 20.593-142.88 12.479-46.793 31.829-91.1 56.772-132.28 24.33-41.801 54.918-79.861 89.23-113.55 34.3-33.66 73.615-62.354 116.03-86.082 41.812-24.345 86.106-43.029 132.89-53.677 33.686-8.09 68.022-11.826 101.71-14.334 11.84-1.229 23.09-1.869 34.312-2.508l74.258 73.614-73.631 73.642c-33.684 2.484-67.395 4.992-99.838 12.467-34.314 8.115-67.998 21.859-97.922 39.316-31.228 17.457-59.294 38.678-84.877 63.02-25.584 24.955-47.418 53.035-65.502 83.598-18.084 29.949-31.817 63.021-41.8 96.705-9.995 34.301-16.229 69.879-14.975 104.82v79.248l-73.628-73.645-73.616 73.645v-81.116z"/></g></svg>
